<svg xmlns="http://www.w3.org/2000/svg" viewBox="0 0 295.67 295.67"><defs><style>.cls-1{fill:#231f20;}</style></defs><title>Asset 1</title><g id="Layer_2" data-name="Layer 2"><g id="Layer_1-2" data-name="Layer 1"><path class="cls-1" d="M147.84,0A147.84,147.84,0,1,0,295.67,147.84,147.84,147.84,0,0,0,147.84,0Zm0,275A127.19,127.19,0,1,1,275,147.84,127.18,127.18,0,0,1,147.84,275Z"/><path class="cls-1" d="M238,97.63a109.11,109.11,0,0,0-14.25-27.51,55.74,55.74,0,0,0-12.18-12.63,76.72,76.72,0,0,0-21.93-11.34,111.23,111.23,0,0,0-33.1-5.59,121.57,121.57,0,0,0-18.87,1.12,113.32,113.32,0,0,0-21.36,4.92A90.5,90.5,0,0,0,88.24,61.54,66.4,66.4,0,0,0,68.47,86.83a64.88,64.88,0,0,0-5,18.6,83,83,0,0,0,0,18.44,103.65,103.65,0,0,0,2,12,26.64,26.64,0,0,1,.51,9.29,21.88,21.88,0,0,1-5.83,12.15c-1.78,1.91-3.77,3.61-5.69,5.38-1.17,1.08-2.4,2.09-3.56,3.19a5.88,5.88,0,0,0-.39,8.24,17.76,17.76,0,0,0,4.06,3.58,28.46,28.46,0,0,0,5.66,2.75c2.88,1.07,3.64,2.67,2.7,5.61-.25.76-.58,1.49-.9,2.22-.44,1-.94,2-1.36,3a15.29,15.29,0,0,0-.84,2.47,4.53,4.53,0,0,0,2,4.88,8.89,8.89,0,0,0,1,.5c.32.15.7.22.7.8-.39.41-.86.85-1.27,1.35a5.75,5.75,0,0,0-1.4,3.57,3.83,3.83,0,0,0,3.38,4.31c.42.08.87,0,1.3.1s.79.11,1.27.18c-.16.78-.29,1.41-.41,2-.33,1.7-.76,3.4-1,5.12-.49,4.34.53,8.22,3.88,11.25a13.8,13.8,0,0,0,7.5,3.15c3.78.58,7.52.08,11.28-.23a52.34,52.34,0,0,1,10.84-.27,11.69,11.69,0,0,1,9.43,6.16,43.27,43.27,0,0,1,2.6,5.72,98.1,98.1,0,0,1,4.79,20.28c.71,5,1.14,10.07,1.71,15.11a11.2,11.2,0,0,0,.29,1.38c2.74.24,70.9.17,72.67-.08a37.11,37.11,0,0,0-1.8-4.94l24.09-5.4c-.12-.63-.15-1-.25-1.33-1.75-6.13-3.46-12.27-5.27-18.38-2.29-7.72-4.74-15.38-6.47-23.24a78.07,78.07,0,0,1-2-14.84,43.38,43.38,0,0,1,.64-9.31,28.33,28.33,0,0,1,9.79-16.74A119.91,119.91,0,0,0,219.47,175,90.37,90.37,0,0,0,235,152.81a69.06,69.06,0,0,0,7.15-32.16A76.88,76.88,0,0,0,238,97.63Zm-23.24,30.6a8.36,8.36,0,0,0,4.4,1,13.49,13.49,0,0,0,5.22-1.31c2.31-1.21,4.69-2.28,7.06-3.37a12.61,12.61,0,0,1,1.85-.51,23.11,23.11,0,0,1-5.76,3.86c-1,.4-2,.91-3,1.34a9.94,9.94,0,0,1-2.42.92c-1.65.23-3.32.3-5,.38a3.34,3.34,0,0,1-2.52-1c-1.69-1.59-2.21-1.51-3.67.21a6.64,6.64,0,0,0-1,1.43c-.62,1.3-1.18,2.64-1.74,4a3.35,3.35,0,0,0-.09.76,2.53,2.53,0,0,0,1,.13,12.58,12.58,0,0,1,4.32-.28c2.1,0,4.2.12,6.31.13a30,30,0,0,0,8.95-1.52,24.8,24.8,0,0,0,6.71-3,5,5,0,0,1,.93-.26,5.82,5.82,0,0,1-.68.79,35.1,35.1,0,0,1-8.39,4c-2.44.87-5,.83-7.5,1s-5.21.11-7.82,0a13.62,13.62,0,0,0-5,1.27,30.86,30.86,0,0,0-4.08,2,4.47,4.47,0,0,0-.91.89,3.25,3.25,0,0,0,2.53,1.2c.86.13,1.74.08,2.61.14a53.55,53.55,0,0,0,13.84-.86c2-.37,4-.71,5.94-1.26,1.66-.47,3.25-1.22,4.87-1.84a2.16,2.16,0,0,1,1.08-.2,5.51,5.51,0,0,1-.73.54,37.78,37.78,0,0,1-7.75,3.36c-.9.25-1.75.7-2.65.93a25.65,25.65,0,0,1-7.31.82c-2.31-.1-4.64,0-7,.1a14.81,14.81,0,0,1-6.4-.94,3.09,3.09,0,0,0-2.51,0c-1.2.5-2.45.88-3.64,1.41a41.39,41.39,0,0,1-8.08,2.45,25.78,25.78,0,0,1-10.57-.13c-.92-.19-1.84-.4-2.76-.55a1.62,1.62,0,0,0-1.93,1.06,22.69,22.69,0,0,0-1,3.31,1.42,1.42,0,0,0,.52,1.1,8.46,8.46,0,0,0,2,1.31,48.3,48.3,0,0,0,9.53,3.56c.73-.11,1-.75,1.37-1.27a6.53,6.53,0,0,1,2.45-2.09,31.58,31.58,0,0,1,10.62-3.64c1.87-.23,3.69-.79,5.55-1.05,4.16-.56,8.34-1.06,12.51-1.51a60.71,60.71,0,0,0,10.48-1.77c.84-.24,1.65-.56,2.48-.82s1.78-.6,2.69-.8a2.69,2.69,0,0,0,1.68-.82v0h0c-.12.3-.14.63-.52.84a28.08,28.08,0,0,1-7.23,2.88c-2.47.58-4.91,1.23-7.38,1.82-.63.15-1.28.22-1.92.31s-1.31.13-2,.23c-2.14.35-4.28.76-6.43,1.07-2.44.35-4.9.54-7.33.95s-5,1-7.43,1.57c-.78.18-1.55.4-2.31.63a16.25,16.25,0,0,0-4.46,2.65c-.23.17-.27.62-.45,1.07,2.18.49,4.28.5,6.31.88s4,0,6.28.35c-.35.22-.53.45-.73.45-2.82.08-5.66.3-8.47.14-2.37-.13-4.7-.79-7.06-1.07-3.54-.4-6.64-1.92-9.75-3.48a16,16,0,0,0-1.67-.61,8.94,8.94,0,0,0-.47,1.32,45.55,45.55,0,0,0-.63,12.55,10.32,10.32,0,0,0,.91,3.12,51.36,51.36,0,0,1,2.69,8.46,9.69,9.69,0,0,1,.23,1.93,23.06,23.06,0,0,1-2.09,9.67c-1,2.41-2.2,4.72-3.43,7-.75,1.4-1.36,2.88-2.06,4.31-.48,1-1,1.93-1.5,2.89a21.86,21.86,0,0,0-2.61,9.52,30.59,30.59,0,0,0,2,12.13,95.3,95.3,0,0,0,5.29,12.13c.41.75.58,1.62.94,2.4.54,1.19,1.16,2.34,1.73,3.51,1.37,2.88,2.32,5.93,3.56,8.86,1.82,4.31,2.57,8.87,3.52,13.4.79,3.77.31,7.5.33,11.33-.51.11-.92.23-1.33.28a7.9,7.9,0,0,1-1.09,0H130.29a4.15,4.15,0,0,1-2.07-.21c0-.17,0-.27,0-.3a42.11,42.11,0,0,0,3.54-3.78,24.67,24.67,0,0,0,4.83-8.66,57.2,57.2,0,0,0,2-8.65,20.33,20.33,0,0,0,.11-2.6,50.9,50.9,0,0,0-.53-10.39c-.46-3.37-1-6.73-1.44-10.1-.3-2.37-.45-4.75-.72-7.12a54.83,54.83,0,0,1-.19-10.64,35.47,35.47,0,0,1,1.55-8.29c.82-2.55,1.79-5,2.83-7.52.9-2.13,1.73-4.29,2.83-6.33,1.2-2.24,2.43-4.45,3.62-6.7.88-1.66,1.7-3.34,2.55-5a7.5,7.5,0,0,0,.83-3.57,16,16,0,0,1,.06-2,8.17,8.17,0,0,0-1.69-5.48,18.75,18.75,0,0,0-4-4.52c-3.17-2.46-5.71-5.54-8.37-8.5-1.5-1.68-2.93-3.41-4.46-5.06a6.05,6.05,0,0,1-1.43-2.63A25.9,25.9,0,0,0,125.7,141a5.7,5.7,0,0,0-2.13-1.8c-1.38-.63-2.72-1.36-4.12-1.94a15.27,15.27,0,0,0-6.36-1.18,35.43,35.43,0,0,1-6.91-.58,14.19,14.19,0,0,1-7.92-3.77,13.14,13.14,0,0,1-4.11-9,39,39,0,0,1,1.27-10.51,30.13,30.13,0,0,0,.48-6.71,1.45,1.45,0,0,0-1.63-1.38,10.55,10.55,0,0,0-2.55.43,14.75,14.75,0,0,0-3.91,1.85,13,13,0,0,1-6.54,2.13,9.53,9.53,0,0,1-1.51,0,33.75,33.75,0,0,1-7.64-1.61,12.53,12.53,0,0,1-3.26-1.15A10.24,10.24,0,0,1,68,105a9.17,9.17,0,0,1,2.35.64c.64.09,1.3.16,1.93.31a20.87,20.87,0,0,0,7.75.54c.64-.09,1.32.12,2,0a16.58,16.58,0,0,0,7.46-2.8c0-2-1.17-3.21-2.33-4.59-.85.55-1.62,1.07-2.41,1.55a13.06,13.06,0,0,1-7,1.93c-1.74,0-3.48,0-5.22.09a7.82,7.82,0,0,1-3.18-.59c-.16-.06-.25-.3-.49-.58a24.83,24.83,0,0,0,3.14.31,53.16,53.16,0,0,0,7.59-.45,10,10,0,0,0,6.19-3.12,5.62,5.62,0,0,0-3.93-2,16.67,16.67,0,0,0-2.82-.1,5.89,5.89,0,0,0-2,.62,11.56,11.56,0,0,1-6.51,1.16c-.21-.55.12-.69.48-.71.79-.06,1.58-.07,2.32-.1.54-1.6.54-1.6-.44-4.81a2.85,2.85,0,0,1,1.55,2.22c.1.64.19,1.27.29,1.91,0,.05.11.09.3.23.81,0,1.38-.73,2.35-1.08a13.18,13.18,0,0,1-3.66-7.19c.39.27.63.34.68.48a17.9,17.9,0,0,0,2.33,3.9,3.88,3.88,0,0,0,2.84,1.79l1.48.25a2.41,2.41,0,0,0,.13-2.35,12,12,0,0,0-2.93-4.52c-.25-.26-.55-.48-.77-.76-.51-.65-1-1.34-1.65-2.25A4.54,4.54,0,0,1,78,86.46a17.88,17.88,0,0,1,1.69,1.68,14.19,14.19,0,0,1,1.4,2.18,15.17,15.17,0,0,1,1,2.18c.3.81.52,1.65.78,2.49l3.65,1.86A5.88,5.88,0,0,1,89,99.18c.47.81,1,1.6,1.52,2.38a9,9,0,0,0,.76.9,2.08,2.08,0,0,0,.55-.06l3.31-1.88a14.82,14.82,0,0,0-.51-1.63,17.67,17.67,0,0,0-3.4-5.26,40.1,40.1,0,0,0-11.7-8.48,3.4,3.4,0,0,1-2-1.47,2.4,2.4,0,0,1,.68-.37c.18,0,.4.15.6.24a70.52,70.52,0,0,1,6.4,3.18,34.61,34.61,0,0,1,7,5.47c.92.93,1.85,1.85,2.75,2.79a1.35,1.35,0,0,0,1.4.51,2.44,2.44,0,0,0,.57-2.91,16.56,16.56,0,0,0-3.15-4.91c-.73-.81-1.5-1.56-2.39-2.47-1.37-.36-3,.07-4.55-.41A21,21,0,0,1,82.41,83a11.49,11.49,0,0,1-3.52-3.14c.52-.33.85.11,1.11.36,1.9,1.82,4.4,2.47,6.7,3.49a3.83,3.83,0,0,0,2.85.09,9.86,9.86,0,0,0-2.73-3,36.3,36.3,0,0,1-5.64-4.41c-.6-.61-1.32-1.11-2-1.66l.49.12c1.22.08,1.56.83,2.51,1.44,1.52,1,3,2.05,4.43,3.13.75.55,1.44,1.2,2.16,1.8.26.22.55.41,1,.76.08-.55.25-.93.14-1.18a9.64,9.64,0,0,0-1.28-2.47C86.88,76.25,85,74.18,83.08,72c.18,0,.4-.05.51,0A21.9,21.9,0,0,1,90.53,80a5.26,5.26,0,0,1,.69,3.46l2.55,3a3,3,0,0,0,.59.63,15.07,15.07,0,0,1,3.91,4,1.47,1.47,0,0,0,.38.25c1.46-1,1.13-2.86,2.08-4.33a4.69,4.69,0,0,1-.25,3.41c-.33,1-.81,1.94-1.4,3.31a22.8,22.8,0,0,0,5.75-3.61,2.41,2.41,0,0,1-.38,1.14c-.43.46-.88.9-1.33,1.35.41.81,1.35.62,1.8,1.21-.08.49-.42.2-.64.19a2.26,2.26,0,0,1-.64-.11c-1.82-.68-3.22.14-4.57,1.21l-.15.15c-1.63,1.49-1.84,2.37-1.06,4.42.22.59.46,1.17.73,1.87a15.11,15.11,0,0,0,2.53-2c-.64,1.16-1.14,2.17-1.73,3.13a4.46,4.46,0,0,0-.69,2.24c-.08,1.81-.22,3.61-.33,5.42a4.83,4.83,0,0,1-.07.86c-.7,2.78-.44,5.63-.55,8.44a10.66,10.66,0,0,0,1.49,5.82,8.09,8.09,0,0,0,4.84,3.77.87.87,0,0,0,1.15-.91,7.46,7.46,0,0,0-.9-3.32c-.89-1.57-1.83-3.12-2.64-4.73a10.62,10.62,0,0,1-1.16-4.6,33.74,33.74,0,0,1,1.94-12.36c.26-.71.15-1.62,1-2.21a4,4,0,0,1-.06.9,39.11,39.11,0,0,0-1.45,8.31,14.09,14.09,0,0,0,.22,3.23c.45,3.24,1.08,6.42,3,9.16.16.23.36.44.62.75a13.9,13.9,0,0,0,3.87-3.47,9,9,0,0,0-.66-1.36c-1.84-2.47-2.45-5.39-2.86-8.32a31.72,31.72,0,0,1,.4-9.72,7.05,7.05,0,0,1,.58-1.63c.06-.14.37-.16.57-.24h0c-.18.77-.39,1.52-.52,2.29a26.54,26.54,0,0,0-.21,8.2c.14,1,.29,2,.46,3a12.14,12.14,0,0,0,2.72,5.6c.11.15.38.17.67.29a16.11,16.11,0,0,0,2-7.46,3.17,3.17,0,0,0-.59-1.6,11.52,11.52,0,0,1-1.49-4.28,12.55,12.55,0,0,1,.23-3.43,9,9,0,0,1,1.92-4.17c.14,1.2-.69,1.9-.87,2.79a13.76,13.76,0,0,0-.29,2.79,17.42,17.42,0,0,0,.29,2.58,6.75,6.75,0,0,0,1.21,2.68,6.63,6.63,0,0,0,.83-.61,24.71,24.71,0,0,0,1.75-1.94,7.33,7.33,0,0,1,3.17-2.15c.34.55-.11.73-.36.89a12.22,12.22,0,0,0-2.92,2.58,7.73,7.73,0,0,0-1.75,6c.37-.1.72-.09.86-.26a25,25,0,0,0,1.8-2.43c.43-.65.74-1.38,1.1-2.06.52,0,.46.37.41.61a7.3,7.3,0,0,1-3.68,5.08,2.46,2.46,0,0,0-1.29,1.63,28.11,28.11,0,0,1-.93,2.67,12.28,12.28,0,0,1-3.48,4.91c-.65.56-1.26,1.17-2,1.82.81,1.79,1.58,3.48,2.42,5.36a1.89,1.89,0,0,0,.61.16q3.59,0,7.17-.11a3.65,3.65,0,0,0,.74-.13c.25-.43,0-.62-.19-.81a11.8,11.8,0,0,0-1.17-1c-1.62-1.06-2-2.71-2.11-4.52a3.7,3.7,0,0,1,.49.82,5,5,0,0,0,2.93,3.28,7.36,7.36,0,0,1,1.48.89,7.49,7.49,0,0,0,4.15,1.64,24.17,24.17,0,0,1,4.22.89,7.64,7.64,0,0,1,3.25,2.11c.74.79,1.53,1.55,2.23,2.37a15.37,15.37,0,0,1,1.39,1.92c.7,1.09,1.38,2.2,2,3.34,2,3.66,3.81,7.48,6.18,11a6.48,6.48,0,0,0,.54.62.57.57,0,0,0,.3-.9,8.93,8.93,0,0,1-1-4.17,57.18,57.18,0,0,1-.66-10.39,34.59,34.59,0,0,1,1.27-7.61,7.27,7.27,0,0,0-4.24-2.19c-1.56-.23-3.12-.47-4.67-.72a.51.51,0,0,1-.21-.06c-1.39-.72-2.74-.93-4,.29-1.84.27-3.62,1-5.56.69.4-.56,1-.23,1.44-.35a15,15,0,0,0,1.47-.35,12.25,12.25,0,0,0,1.6-.66,14.83,14.83,0,0,0,1.28-.82c-1.88-1.71-4.42-2.13-6.25-4.22,1.71.24,2.73,1.25,4,1.71s2.49,1.21,3.8,1.56,2.48,1.18,4.1.68a6.39,6.39,0,0,0-.93-1,41.33,41.33,0,0,1-6-5,6.05,6.05,0,0,0-2.82-1.52,11,11,0,0,1-5-2.54c.3-.54.59-.12.86,0s.66.24,1.08.39a2.48,2.48,0,0,0-.51-2.68c-.56-.66-1.17-1.28-1.73-1.94a5,5,0,0,1-.42-.79c2.47.69,3.32,1.89,4.09,5.64.25,0,.52.09.8.11s.55,0,1,0a3.18,3.18,0,0,0-.14-.89c-.76-1.64-1.69-3.22-2.29-4.92a43.62,43.62,0,0,1-1.45-5.67,25.92,25.92,0,0,0-1.73-5.35,28.23,28.23,0,0,0-1.82-3.91,27,27,0,0,0-6.69-6.75,5.24,5.24,0,0,0-1.12-.66c-2.77-1.23-5.51-2.54-8.37-3.61a61.69,61.69,0,0,1-8.46-3.91,24.84,24.84,0,0,1-4.74-3.78,13.32,13.32,0,0,1-1.92-2.87,1.47,1.47,0,0,1-.08-.59c.73.15,1,.82,1.34,1.31a18.76,18.76,0,0,0,7.29,6c1.47.62,2.9,1.34,4.35,2,.58.26,1.19.45,1.94.74.53-1.77,1.1-3.35.68-5.22a9.42,9.42,0,0,0-1.75,0,7.67,7.67,0,0,1-5.15-1.41,25.28,25.28,0,0,1-6.49-6,1.69,1.69,0,0,1-.23-.36s0-.11.06-.21c1.78,1.44,3.55,2.87,5.33,4.29a11.72,11.72,0,0,0,6.37,2.52,3.61,3.61,0,0,0,.87,0,3.23,3.23,0,0,0,.65-.3c-.47-2.45-2-4.31-3.51-6.21a12.06,12.06,0,0,1-6-2.27,1.75,1.75,0,0,1-1-1.39c1,0,1.49,1,2.44,1.12a9.59,9.59,0,0,0,2.15-4.08,7.68,7.68,0,0,1-1,4.48,2.14,2.14,0,0,0,.59.37c.42.09.85.12,1.2.17.8-.55.68-1.33.74-2a14.82,14.82,0,0,1,1.86-5.81,1.81,1.81,0,0,1,0,1.6,7.83,7.83,0,0,0-.64,3.6c0,2.52,0,2.52,1.61,5a3.13,3.13,0,0,0,.66-.72,12,12,0,0,0,1.34-5.65,7.81,7.81,0,0,1,.19-1.72c0-.11.17-.2.39-.45a8.37,8.37,0,0,1,.09,2.37,11.86,11.86,0,0,1-.13,2.39,36.38,36.38,0,0,1-1.08,4,2.85,2.85,0,0,0,0,2.11c.12.26.18.55.31.81a11.81,11.81,0,0,1,.66,8.47,5.09,5.09,0,0,0,0,.79,7.71,7.71,0,0,0,1.49.65,35.57,35.57,0,0,1,9.32,4.09,18.72,18.72,0,0,1,2.74,2.14,3,3,0,0,0,1.85,1c.8-1.6.84-2,.34-4.17-1.31-.5-2.68-.93-4-1.55s-2.51-1.43-3.91-2.24c-.55-1.62-1.64-3.19-1.88-5.12-.13-1-1-1.57-1.75-2.11-1.32-.89-1.31-.9-2-2.77.25.11.49.13.55.25a4.22,4.22,0,0,0,2.18,2,4.27,4.27,0,0,1,2.74,3.64,9.64,9.64,0,0,0,.31,1.26,4.82,4.82,0,0,0,2.68,3.25A12.19,12.19,0,0,0,118,84.47c.59-.44.38-.92.09-1.34-1-1.43-2-2.88-3-4.24a10.52,10.52,0,0,1-2.48-5.45,2.24,2.24,0,0,0-.77-1.73c-2.12-1.63-3-4.06-4-6.38-.43-1-.8-2-1.19-3,0-.07-.05-.14-.08-.2a21.81,21.81,0,0,1-.62-6.38c.47,3.82,2.06,6.77,3.09,9.91a11.23,11.23,0,0,0,2.64,4.69,4.5,4.5,0,0,0,.64.44,2.5,2.5,0,0,0,.4-.69c.28-1.72.59-3.43.75-5.16a12,12,0,0,0-.9-5.74,5.92,5.92,0,0,0-1.11-1.59c-.8-.92-1.67-1.78-2.6-2.77a1.31,1.31,0,0,1,1.42.33,10.69,10.69,0,0,1,3.33,4.23c.46,1.2,1,2.4,1.47,3.71a2.69,2.69,0,0,0,.52-2.16,9.23,9.23,0,0,0-1-3.74,41.23,41.23,0,0,1-1.76-4c.16,0,.36-.11.39-.07a17,17,0,0,1,3.53,7.12,5.59,5.59,0,0,1-1.06,4.7,5.87,5.87,0,0,0-1.14,2.77c-.2,1.07-.31,2.15-.54,3.21a7,7,0,0,0,1.12,5.38,6.51,6.51,0,0,0,1.64,2.35,2.49,2.49,0,0,0,.73-.36,12.42,12.42,0,0,0,2.22-3.45,3.13,3.13,0,0,0-.17-2.33c-.28-.9-.65-1.76-1-2.65a4.55,4.55,0,0,1-.06-2.9c.58,2.32,1.92,4,2.13,6.2a6.7,6.7,0,0,1-1.32,4.89l-1.58,2.07c.32.47.54.84.81,1.17a15,15,0,0,1,2.38,4.6,6.73,6.73,0,0,1,.07,4.68,10.37,10.37,0,0,1-.35,1,2.2,2.2,0,0,0,.27,2.26,27.09,27.09,0,0,1,1.71,3,36.29,36.29,0,0,1,1.2,3.7c.28.93.67,1.15,1.6.84a5.55,5.55,0,0,0,2.73-2,8.69,8.69,0,0,0,1.49-6.39c-.42-5.09-.46-5.09.45-9.62a13.63,13.63,0,0,0-.95-1.29,7,7,0,0,1-1.79-5,16,16,0,0,1,.51-4.3c.22-.76.31-1.56.47-2.39a10.32,10.32,0,0,0-1.33-.81,9.23,9.23,0,0,1-3.43-2.59,1.85,1.85,0,0,0-.29-.33c-1.92-1.33-2.85-3.43-4-5.32a21.4,21.4,0,0,1-2.39-6c-.24-1-.57-1.94-.84-2.92a8.24,8.24,0,0,1-.13-1c1,1.09,1.41,1.56,1.54,2.67.31,2.64,1.93,4.65,3.11,6.87.34.64.81,1.2,1.18,1.83a14.66,14.66,0,0,0,6.1,5.39c.11.06.28,0,.59,0a9.56,9.56,0,0,0-1.61-11.47,5.6,5.6,0,0,0-1.42-.95,11.37,11.37,0,0,1-4.54-3.61c-.46-.63-.83-1.32-1.45-2.31,1.44.47,1.58,1.88,2.7,2.15.65-1.25,1.31-2.52,2.13-4.13.22,2.22-1.38,3.53-1.41,5.32a3.23,3.23,0,0,0,2.35,1.17c.25-2,.1-4,.68-6.33a3.81,3.81,0,0,1,.26,2.11,6.16,6.16,0,0,0,.61,3.37,11.77,11.77,0,0,1,.39,1.23,3.9,3.9,0,0,0,.77,1.28A7,7,0,0,1,129.34,58a4,4,0,0,0,.63.7c.73-.06.77-.58.89-.95A26.91,26.91,0,0,0,132,51.13c.1-1.3.12-2.61.19-3.91a1.39,1.39,0,0,1,.44-1c0,.46.12.92.15,1.38a27.62,27.62,0,0,1-1.44,12,3.1,3.1,0,0,0-.26,1.68c.62,2.68-.14,5.16-.87,7.68-.39,1.31-.68,2.66-1,4a5.52,5.52,0,0,0,0,1.22c.3,0,.48.06.57,0a12,12,0,0,0,4.1-5.49,6.73,6.73,0,0,0,.22-3.44,5.71,5.71,0,0,1,1.29-4.86,5.39,5.39,0,0,0,1.25-4.46,2.82,2.82,0,0,1,0-.41s.1,0,.28-.12c.29,1.77.36,3.43-.77,5a5.43,5.43,0,0,0-.94,4.72c.63,2.51-.32,4.73-1.69,6.74a17.82,17.82,0,0,1-4,4.55,1.48,1.48,0,0,0-.53,1.75A4.35,4.35,0,0,0,130.62,81a3.4,3.4,0,0,0,.62-.88c.75-2.5,2.45-4.4,4-6.43.52-.7,1.08-1.37,1.55-2.1a17,17,0,0,1,3-3.44A38.51,38.51,0,0,0,142.49,65c-.25-.5-.48-.93-.69-1.38-.57-1.25-1.22-2.47-1.67-3.75a7.66,7.66,0,0,1-.15-4.71,1.89,1.89,0,0,0-1-2.38c-2.09-1.32-2.77-3.43-3.18-5.69,0-.12.07-.27.17-.59,1,2.12,1.82,4.22,3.89,5.36,1.24-1.49,1.31-1.87,1.24-6.23a.41.41,0,0,1,.65.26c.26.75.5,1.5.79,2.39a4.78,4.78,0,0,0,1-.38c.47-.33.9-.72,1.39-1.12,0,1.32,0,1.39-.53,1.64-1.28.64-1.65,1.84-2.24,3-1,2-.67,4.07-.9,6.32a5.47,5.47,0,0,0,1.16-.37,12,12,0,0,0,4.64-5c.75-1.57,1.65-3.06,2.52-4.57.31-.55.73-1,1.39-2a13.52,13.52,0,0,1-1.3,4.25,19.47,19.47,0,0,1-2.29,3.66,24.94,24.94,0,0,1-2.61,3.18,38.42,38.42,0,0,1-3.15,2.6,4,4,0,0,0,1.91,3.64,14.32,14.32,0,0,0,3.7-3.46,36.18,36.18,0,0,0,3-4.28A18.55,18.55,0,0,0,152.55,51c.5-1.64.88-3.32,1.54-4.93.62.18.45.61.41.88a20.5,20.5,0,0,1-2.26,6.54A61.64,61.64,0,0,1,144.58,64a100.9,100.9,0,0,0-7.06,8.54c-3.35,4.74-5.65,10-5.67,15.92a44.06,44.06,0,0,0,.2,5.85,15,15,0,0,1-.3,4.32,5.47,5.47,0,0,1-1.21,2.74,22.45,22.45,0,0,0-1.76,2.46,5.84,5.84,0,0,0-.47,6.17,21.79,21.79,0,0,0,6.7,8.14,45.71,45.71,0,0,0,4.33,2.87,20.22,20.22,0,0,0,4.87,1.75,1.39,1.39,0,0,0,1.82-.72,14.53,14.53,0,0,0,1-1.44c1.08-2.77,3.4-4.67,5-7.09a14.2,14.2,0,0,1,1.72-1.65c2.77-3,5.6-5.85,8.64-8.54.18-.16.34-.62.25-.73a1.76,1.76,0,0,0-.85-.51,1,1,0,0,0-.63.14,15.92,15.92,0,0,0-5.23,3.8,12.91,12.91,0,0,1-5.62,3.94,28.79,28.79,0,0,1-8.64,2c-1.66.1-3.32.11-5,.17a4.5,4.5,0,0,1-2-.59,7.81,7.81,0,0,1,1.59-.28,31.63,31.63,0,0,0,6.23-.6,26.61,26.61,0,0,0,4.14-1.27c3.13-.94,5.62-2.93,8.07-5a7.29,7.29,0,0,0,.93-1.24c-.77-1.38-1.49-2.69-3.19-3.23a16.82,16.82,0,0,0-1.27,1.13c-3.05,3.33-7,5.1-11.24,6.26-1,.26-1.95.53-2.93.75a4.52,4.52,0,0,1-1.18-.22,31.41,31.41,0,0,1,4.69-1.62,13.7,13.7,0,0,0,7.59-4.76,25.13,25.13,0,0,1,2.19-2.19,4.64,4.64,0,0,0-3.12-.89,15.56,15.56,0,0,0-3,.25,4.1,4.1,0,0,0-2.21,1.29,19.81,19.81,0,0,1-6.21,3.48c-.1,0-.26-.08-.5-.16l1.85-1.36c.42-.94-.89-1.85.28-2.78l.88,1.93a7.65,7.65,0,0,0,2.51-1.86c-.82-1.51-2.38-2.24-3.23-3.58a21.94,21.94,0,0,1-2.44-4c.43-.36.64-.09.8.11.74.89,1.5,1.78,2.16,2.73a8.84,8.84,0,0,0,2.54,2.34,6.51,6.51,0,0,0,4.49.63c-.54-2.78-2.1-4.94-3.5-7.47.49.09.82,0,1,.19a11.84,11.84,0,0,1,2.83,4.08,9.47,9.47,0,0,0,1.64,3.08,15.15,15.15,0,0,1,5.72,1,20.3,20.3,0,0,1,4.6,3.28,4.69,4.69,0,0,0,2.26-1.55c-.38-.32-.72-.66-1.11-.93a21.46,21.46,0,0,1-5.72-5.56,27.27,27.27,0,0,1-1.73-3.25,3.09,3.09,0,0,0-2-1.81,7.24,7.24,0,0,1-4.08-3.07c-.53-.77-1.08-1.58-1.91-1.65-.74-1.3-1.35-2.43-2-3.53a3.72,3.72,0,0,1-.72-3.38c.27.23.52.35.64.56.6,1.07,1.13,2.18,1.75,3.24a9.62,9.62,0,0,0,1,1.29c.69-.08.76-.6.8-1a10.82,10.82,0,0,0,.07-3.89c-.24-1.06-.44-2.13-.63-3.21-.08-.48-.08-1-.13-1.52A1.76,1.76,0,0,1,144.86,74a18.72,18.72,0,0,1,.25,8.19,2.5,2.5,0,0,0,1.17,3,7.67,7.67,0,0,0,2.6,1.41c.57-.85.07-1.54,0-2.21a60.65,60.65,0,0,1-1-14c.15-1.94.55-3.86.86-5.79,0-.19.23-.35.49-.75a39.33,39.33,0,0,1-.31,4.44A47.54,47.54,0,0,0,149,78.42a24.35,24.35,0,0,0,1.6,6.74c.61,1.47,1.16,3,1.78,4.42a7,7,0,0,0,.81,1.17,21.4,21.4,0,0,0,2.61-3.84,35,35,0,0,0,1.66-4.14,7.66,7.66,0,0,0-.87-1.12,13,13,0,0,1-4.05-7.26,49.49,49.49,0,0,1-.82-5.53c.46-.13.51.17.57.44.36,1.4.63,2.82,1.07,4.19a16.74,16.74,0,0,0,4.05,6.62,2.92,2.92,0,0,0,.69.38,4.17,4.17,0,0,0,.69-1,15.7,15.7,0,0,0,.55-6c-.07-1.59-.32-3.17-.44-4.76a2,2,0,0,0-.8-1.46C155.17,65,154,62,153.72,58.42c-.23-3,.48-5.89,1.06-8.8a3,3,0,0,1,.53-1.17c.14-.18.49-.19.75-.28h0c-.24.75-.54,1.48-.71,2.24a24.24,24.24,0,0,0-.77,5.8c0,1.5.3,3,.48,4.64a5.34,5.34,0,0,0,1-.42,6.54,6.54,0,0,0,2.12-3,15,15,0,0,0,1.16-6.14c0-1.15,0-2.31,0-3.83.39.5.69.71.73,1a11.82,11.82,0,0,1,.17,2.37c-.08,1.67-.25,3.33-.4,5A6,6,0,0,1,158.49,59c-.83,1.09-1.72,2.14-2.67,3.31a10.88,10.88,0,0,0,2.89,3.21c1-2.57,2.64-4.6,3.85-6.89a17.29,17.29,0,0,0,2.05-7c.08-1.36.29-2.72.43-4a2.27,2.27,0,0,1,.76,1.89,18.19,18.19,0,0,1-2.51,9.95c-.74,1.32-1.54,2.61-2.18,4a11.27,11.27,0,0,0-.56,7.56c.46-.2.85-.26,1-.48a9.08,9.08,0,0,0,1.56-2.07,51.27,51.27,0,0,0,3.36-9.16,15.09,15.09,0,0,1,.78-2.26,7.21,7.21,0,0,0,.75-3.57,10.5,10.5,0,0,1,.18-2.16c0-.16.24-.29.53-.6.11,2.42.27,4.62-.65,6.76a14.86,14.86,0,0,0-.68,2.5,28.78,28.78,0,0,1-4.59,10.48,9.62,9.62,0,0,1-1.36,1.68,2.84,2.84,0,0,0-1,2.31c0,1,0,1.89,0,2.83a18.31,18.31,0,0,1-1.19,5.93,35.14,35.14,0,0,1-4.38,8.2,3.11,3.11,0,0,0-.32.56,2.88,2.88,0,0,0-.1.56c.25.31.53.73.87,1.09,1.28,1.35,1.69,1.44,3.12.35a24.53,24.53,0,0,0,5.46-5.54,2.28,2.28,0,0,0,.39-2.24,12.86,12.86,0,0,1,.08-8.31c.42-1.38.62-2.83,1-4.24a12.31,12.31,0,0,1,.73-2.49,48.42,48.42,0,0,0,2.62-7.81c1.19-4,2.44-8,2.66-12.27,0-.12.13-.24.22-.42.4.18.33.56.32.84a25.57,25.57,0,0,1-.22,3,103.77,103.77,0,0,1-3.35,14.14c-.65,2.14-1.54,4.21-2.2,6.34a24.64,24.64,0,0,0-1.49,7.21A3.34,3.34,0,0,0,165.87,85c1.62-1.72,2.3-3.93,3.8-5.91a5.36,5.36,0,0,1-.79,2.92c-1,1.75-2.08,3.47-3.16,5.18a21,21,0,0,1-3.79,4.72,41.24,41.24,0,0,0-3.27,3.53,12,12,0,0,0,3.38,2,32.83,32.83,0,0,0,3.72,1.17,1.37,1.37,0,0,0,1.57-.44c3.33-3.9,6.09-8.08,6.81-13.34a37.61,37.61,0,0,0,.13-8.87q-.75-7.35-1.33-14.71a50.31,50.31,0,0,1,0-5.21c0-.17.25-.49.33-.47.24.05.6.2.64.37a11.94,11.94,0,0,1,.33,2.13,36.72,36.72,0,0,0,.89,5.92c.65.43,1,.09,1.41-.27a14,14,0,0,0,2.36-3.88c.45-.9.9-1.81,1.27-2.75s.76-2.14,1.18-3.33c.12.21.3.36.29.51a8.87,8.87,0,0,1-1.37,4.49c-1,1.51-1.63,3.22-2.48,4.81a8.09,8.09,0,0,1-1.24,1.76,1.83,1.83,0,0,0-.46,2c.59,2.08,1.13,4.18,1.67,6.29.38,1.47.73,2.95,1.06,4.43a20.68,20.68,0,0,1-.57,11.14,37,37,0,0,1-5,10c-2.6,3.66-5.32,7.21-8,10.8-1.21,1.62-2.22,3.4-3.5,5a52.5,52.5,0,0,0-3.66,5.62c-.88,1.41-1.62,2.9-2.39,4.32a3.1,3.1,0,0,0,3.23,2.2,12.15,12.15,0,0,0,4.64-.92,48.22,48.22,0,0,0,5.41-2.75,15.15,15.15,0,0,0,1.41-1,4.68,4.68,0,0,0,1.69-4.66,2.84,2.84,0,0,0-1.57-2.19,4.43,4.43,0,0,0-5.26.41c-.51.38-.94.88-1.53,1.43a4.62,4.62,0,0,1,1.59-3A5.41,5.41,0,0,1,169.7,113a4.71,4.71,0,0,1,1.19.48c.38.15.77.27,1.23.42a5.16,5.16,0,0,0,.19-1,8,8,0,0,1,2.8-5.91,6.64,6.64,0,0,0,.89-1c1-1.4,2.1-2.77,3-4.25a30.17,30.17,0,0,0,4.61-16.94c-.07-2-.4-4-.65-6-.34-2.8-.83-5.59-1-8.4a35.2,35.2,0,0,1,.61-10.59,13.12,13.12,0,0,1,2.06-4.48s.13,0,.36-.11a9.84,9.84,0,0,1-.23,1.26c-.47,1.44-1,2.87-1.45,4.32-.79,2.53-.64,5.16-.81,7.76a40.45,40.45,0,0,0,.36,5.17,2.71,2.71,0,0,0,.35,1,.69.69,0,0,0,.92.36,38.89,38.89,0,0,0,3.38-1.94,1,1,0,0,0,.18-1.67,4.47,4.47,0,0,1-1.33-2.9,28.7,28.7,0,0,1-.05-3.47,48.18,48.18,0,0,1,.52-5,28.16,28.16,0,0,1,.94-3.29c.53,0,.47.3.45.57a2.88,2.88,0,0,1-.15.63c-1,3.6-.45,7.19,0,10.79a3.45,3.45,0,0,0,1.42,2.25,13.83,13.83,0,0,0,2.65-4.45,7.72,7.72,0,0,0,.33-4.45,4.63,4.63,0,0,1,0-3.26c1,.8.4,2.14,1.18,3,1.08.12,1.63-1.67,3.09-1-1.16,1.88-3.47,3.09-3.06,5.76a9.55,9.55,0,0,0,4.84-2c.52-.39,1.07-.74,1.61-1.09a1.29,1.29,0,0,1,.48,0c0,.2,0,.44-.06.57a7.34,7.34,0,0,1-3.27,2.45c-1.19.52-2.42,1-3.66,1.36a2.89,2.89,0,0,0-1.81,1.38,14.87,14.87,0,0,1-6.24,6.15c-2.14,1.05-2.16,1.33-1.75,3.6a50.28,50.28,0,0,1,.9,5.56,57.6,57.6,0,0,1-.07,6.3c-.08,1.57-.29,3.13-.44,4.73.21.35.59.32.93.21a5.24,5.24,0,0,0,1.17-.56c2.25-1.5,2.54-2,2-4.43a18.1,18.1,0,0,1-.21-7.11,5.19,5.19,0,0,1,1.36-2.9c.24-.26.48-.54.73-.8a5.35,5.35,0,0,0,1.63-3.68,9.12,9.12,0,0,1,.3-1.93,4.31,4.31,0,0,1,2.82-3.51,11.59,11.59,0,0,0-.9,1.61,12.14,12.14,0,0,0-.47,1.89c-.15.71-.3,1.42-.39,2.13a7.06,7.06,0,0,1-2.2,4.59,6.86,6.86,0,0,0-2.15,5.25,9.17,9.17,0,0,0,.76,4.57c.28-.27.56-.41.66-.63.77-1.71,1.46-3.47,2.28-5.16,1-2,1.58-4.22,3.17-5.9a3.86,3.86,0,0,1,.75-.76,2.44,2.44,0,0,0,1.11-2.21,5.7,5.7,0,0,1,.53-2.08,44,44,0,0,1,5.22-8.51c.13-.17.24-.36.35-.53.61.38.29.68.13.94a11.19,11.19,0,0,0-1.66,3c.51.39.88,0,1.19-.21.91-.6,1.74-1.31,2.64-1.92.38-.26.79-.7,1.34-.28,0,.08.05.19,0,.22a19,19,0,0,1-5,4.1,6,6,0,0,0-2.75,2.91,5.47,5.47,0,0,0-.84,2.59c.26.06.42.15.51.11,2.71-1.25,5.41-2.5,7.5-4.71.6-.62,1.13-1.32,1.74-1.93a1.33,1.33,0,0,1,1.66-.45c-.84,1.88-2.46,3.12-3.73,4.64,1.55.87,2.77.61,3.54-.64.33-.53.48-1.24,1.31-1.35v2l1.87-.67c.28.39,0,.56-.24.7a11,11,0,0,1-5.76,1.72,32.09,32.09,0,0,0-3.25.12,4.87,4.87,0,0,0-1.63.48c-1.3.65-2.59,1.32-3.81,2.09a8.68,8.68,0,0,0-2.13,1.83,18.27,18.27,0,0,0-2.47,5.09,1.35,1.35,0,0,0,1.36.84c.66,0,1.31-.06,2-.08a2,2,0,0,0,1.43-.85c1.42-1.64,2.85-3.26,4.37-4.8a14.85,14.85,0,0,1,2.3-1.59c.36.59-.07.79-.31,1a22.37,22.37,0,0,0-3.95,4c-.17.22-.29.48-.54.89a3.42,3.42,0,0,0,.93,0,28.16,28.16,0,0,0,5.43-2.22,6.34,6.34,0,0,1,1.18-.55,9.09,9.09,0,0,0,3.37-1.93,5.58,5.58,0,0,1,.86-.57c.18.66-.27.88-.59,1.11a32.67,32.67,0,0,1-5.83,3.74c-.73.32-1.46.63-2.16,1a18.84,18.84,0,0,1-10.14,2.25,23.36,23.36,0,0,0-1.9,3.35c-.82,1.36-1.59,2.76-2.54,4a6,6,0,0,1-2.94,2.14c-.89.3-1.74.69-2.72,1.08-.38.86-.74,1.81-1.21,2.7s-1,1.57-1.46,2.3c.24.54.6.46.93.3a34.34,34.34,0,0,0,7.92-5.29A6,6,0,0,1,191.87,97v-.07l0,0,0,0c.09.47-.25.75-.54,1-1.75,1.61-3.3,3.46-5.45,4.6-.24.13-.39.4-.6.62,1.15.48,1.15.48,5.29-.78.14.38-.16.49-.39.59a16.94,16.94,0,0,1-6.22,1.72,3.92,3.92,0,0,0-2.05.57,10.74,10.74,0,0,1-3.35,1.48,2.2,2.2,0,0,0-1.23.81,10.67,10.67,0,0,0-2,5c-.18,1.61.5,3,2.08,4.38a35.31,35.31,0,0,0,3.14-2.19,22.43,22.43,0,0,1,4.39-2.78,3.72,3.72,0,0,0,2.14-2.55,8.43,8.43,0,0,1,3.43-4.87A44.31,44.31,0,0,1,195,102c.51-.28,1-.49,1.69-.79,0-.78,0-1.56,0-2.34a8.65,8.65,0,0,1,1.12-4.58A2.76,2.76,0,0,1,199,93.1a17,17,0,0,0,5.1-3.92,6.05,6.05,0,0,1-2.55,3.52c-.66.44-1.3.91-2,1.35a3.3,3.3,0,0,0-1.4,2.36,10.82,10.82,0,0,0,0,4,3.65,3.65,0,0,0,1.05,0,15.93,15.93,0,0,0,5.46-3.47,27.09,27.09,0,0,0,3.72-7.28,6.61,6.61,0,0,0,0-1.09c-.19-2.46,1.07-4.13,3-5.35,1.1-.68,2.29-1.22,3.44-1.84a1.24,1.24,0,0,0,.28-.28s0,0,0,0l0,0h0c0,.33.11.7-.25.94a22,22,0,0,1-2.21,1.38,7.56,7.56,0,0,0-2.88,2.87,2.17,2.17,0,0,0-.26,1c0,.15.21.35.38.46s.27,0,.4,0a.31.31,0,0,0,.17-.13c1.12-1.88,3.13-2.39,4.92-3.31.21.58-.15.76-.44.89a11.51,11.51,0,0,0-5.5,5.6,25,25,0,0,0-2.2,4.85,4.89,4.89,0,0,0,1.28,0c2.31-.69,4.26-2.11,6.31-3.32,1.05-.61,2-1.38,3-2.07.27-.19.56-.35.92-.57.15.82-.43,1-.78,1.3-1.24,1-2.49,2-3.82,2.82a20.44,20.44,0,0,1-7.6,3.11,14.89,14.89,0,0,1-3.85,3.39,17.55,17.55,0,0,1-1.93,1c-.52.23-1.1.32-1.63.56-1.84.82-3.67,1.67-5.42,2.48-.22.53,0,.82.37.94a7.44,7.44,0,0,0,3.41.45,5,5,0,0,1,.86-.08,6.89,6.89,0,0,0,5.63-2.78,5.42,5.42,0,0,1,3.6-1.78c.64-.1,1.31,0,2,0s1.21-.22,2.3-.42c-.6.47-.78.73-1,.78a23.54,23.54,0,0,1-2.34.45,6.28,6.28,0,0,0-4,2,8.39,8.39,0,0,1-6,2.72,16.37,16.37,0,0,1-6-.37,2,2,0,0,0-2.43,1c-.57.89-1.39,1.68-1.21,3a7.21,7.21,0,0,0,2.78-.06,33.6,33.6,0,0,1,3.46-.28,44.48,44.48,0,0,1,6.73.08c1.14.18,2.32.14,3.43.42a8.58,8.58,0,0,0,2.87.15c.65-1.19,1.34-2.37,1.95-3.58a6.61,6.61,0,0,1,2.07-2.47c1.24-.89,2.4-1.88,3.66-2.72a2.56,2.56,0,0,0,1.21-1.7,5.18,5.18,0,0,1,1.33-2.9l-.1.3c0,.57,0,.78-.09,1.34s-.22,1-.36,1.57c.34.09.62.26.84.2a8.73,8.73,0,0,0,3.66-1.8A5.34,5.34,0,0,0,223.72,97a26.34,26.34,0,0,1,2-3.43,13.57,13.57,0,0,1-3.35,6.63,4.74,4.74,0,0,0,.67.36c2.26.67,2.41.58,2.9-1.69a3.71,3.71,0,0,1,1.33-2.54c.19.9-.52,1.43-.52,2.11s-.46,1.38-.15,2.26h3.08c-.59.3-.77.46-1,.47-2.16.16-4.33.5-6.48-.14a3.81,3.81,0,0,0-2.95.26c-1.22.64-2.48,1.18-3.69,1.84a3.5,3.5,0,0,0-1.87,1.86,4.9,4.9,0,0,0,2,1.2,13,13,0,0,0,4.68.61c1.52-.16,3-.13,4.56-.25.68,0,1.46.09,1.95-.6v0h0l0,0-.61.89c-2,.31-4,.68-6.06,1a12.84,12.84,0,0,1-6.94-1.33l-.8-.32a.76.76,0,0,0-.21,0,6,6,0,0,0-2.12,4.79,22.89,22.89,0,0,0,3.79.41,52.24,52.24,0,0,0,7.78-.73,46.06,46.06,0,0,0,12.59-4.55c.49.58.26.94-.29,1.21-1.88.93-3.77,1.84-5.64,2.78a13.36,13.36,0,0,0-1.17.71c0,.64.41.72.71.86a18.81,18.81,0,0,0,5.81,1.61c.91.11,1.82.29,3,.47-1.67.46-2.68.52-6.27-.22a53.4,53.4,0,0,1-6-2,37.22,37.22,0,0,1-8.89,1.19,45.22,45.22,0,0,1-9.51-.67c-2-.34-4-.28-6-.6-.28,0-.58,0-.87,0-5.83-.63-11,1.26-15.8,4.29a46.79,46.79,0,0,0-7.18,5.92,22.53,22.53,0,0,1-2.51,2.06c-1.9,1.33-3.84,2.59-5.76,3.88-.24.16-.46.34-.7.52,1,1.19,1.46,1.28,2.43.34a8,8,0,0,1,6.16-2.23,11,11,0,0,1-1.38.81c-.75.27-1.53.43-2.27.71s-1.31.61-1.93.91a.59.59,0,0,0,.32.9,13,13,0,0,0,1.27.37c-.41.27-.67.59-.91.58a16.93,16.93,0,0,1-3.64-.43,9.41,9.41,0,0,0-5.75.17,20.44,20.44,0,0,1-6.57,1.32c-.22,0-.43.06-.65.08a1.17,1.17,0,0,0-1.12,1.13,26.83,26.83,0,0,0-.38,3.88,19.67,19.67,0,0,0,3.53,11.23,66.35,66.35,0,0,0,4.95,6,15.6,15.6,0,0,1,1.56,2c.41.64.69,1.44,1.46,1.78.11-.06.22-.07.24-.12,1-2.51,1.67-5,.93-7.77A53.2,53.2,0,0,0,161.06,139c-.26-.49-.65-.94-.26-1.7a14.09,14.09,0,0,1,2.39,3.65,7.83,7.83,0,0,0,1.93,2.94c1.61-1.54,1.38-3.71,2.09-5.73a10.34,10.34,0,0,1-.25,4.79,4.38,4.38,0,0,1-.41,1c-1.28,1.94-.22,3.52.69,5.24,1.24-1.92,2.45-3.72,3.58-5.57a17.75,17.75,0,0,1,3-3.74A4.16,4.16,0,0,0,175,137.4a32.49,32.49,0,0,1,3.31-10,43.82,43.82,0,0,1,4.08-6.89c.95-1.18,1.94-2.34,2.94-3.48a1.51,1.51,0,0,1,1.18-.45c-1,1.46-2.09,2.88-3,4.39a38.16,38.16,0,0,0-2.92,4.62,3,3,0,0,0,2.43-.07A26.61,26.61,0,0,0,190.9,121c1.25-1.11,2.5-2.2,3.77-3.29a7.58,7.58,0,0,1,.84-.54,1.18,1.18,0,0,1,.13.3c-2.11,2-3.83,4.53-6.48,6-1.2.67-2.31,1.5-3.51,2.17a13.54,13.54,0,0,1-5.68,1.46,25.07,25.07,0,0,0-2.78,6.35,5.36,5.36,0,0,0-.4,3,3,3,0,0,0,.85-.35c.83-.7,1.63-1.43,2.43-2.16a17.48,17.48,0,0,1,2.75-2.09c1.35-.82,2.54-1.9,3.86-2.79,2.46-1.65,4.94-3.28,7.45-4.86a30.84,30.84,0,0,0,3-1.6,32.1,32.1,0,0,0,2-2.52,20,20,0,0,1,5.87-4.37s.12,0,.33.13a3,3,0,0,1-.46.6c-1,.73-2,1.43-3,2.16a4.15,4.15,0,0,0-1.7,2.36,5.44,5.44,0,0,0,1.08-.21c.79-.37,1.54-.81,2.32-1.19a34.1,34.1,0,0,1,8.28-2.49,3.24,3.24,0,0,1,1.3.1c-5.5,1.62-10.46,4.41-15.59,6.83-2.78,2.06-5.93,3.58-8.67,5.7a111.25,111.25,0,0,0-13,11.2c-.69.72-1.29,1.53-2,2.39.32.23.51.48.75.53a31.94,31.94,0,0,0,11.66.26c.16-.48.28-.89.43-1.28a16.93,16.93,0,0,1,4.7-7.42,21.06,21.06,0,0,0,1.75-1.9,6.06,6.06,0,0,1,.76-.76,67.09,67.09,0,0,1,9.3-6.37,8.8,8.8,0,0,1,1.4-.54c.11,0,.27.06.52.13a3.25,3.25,0,0,1-.63.54,25.62,25.62,0,0,0-4.85,3.27,38.86,38.86,0,0,0-5.79,5.53c-.5.6-1,1.18-1.5,1.82-.73,1-1.42,2-2.09,3.05a5.92,5.92,0,0,0-1.29,3.62,3.51,3.51,0,0,0,2.37,0,26.09,26.09,0,0,0,6.95-2.87c2.06-1.19,4.06-2.48,6.1-3.72a3.35,3.35,0,0,0,1.49-1.78c.35-.95.81-1.85,1.24-2.77a3.51,3.51,0,0,1,.42-.76c1.86-2.18,3.27-4.79,5.87-6.29A4,4,0,0,0,215,123.5a24.6,24.6,0,0,1,6.14-8.29c.07-.06.25,0,.53,0-1,1.22-1.94,2.34-2.78,3.55s-1.46,2.47-2.16,3.65a.63.63,0,0,0,1,.2,48.92,48.92,0,0,1,10.79-5,15,15,0,0,1,4.2-1,7.61,7.61,0,0,0,1.68-.4,6.54,6.54,0,0,1,2.46-.27c-.19.81-.8.86-1.3,1-1,.24-2,.36-2.94.65-1.45.45-2.86,1-4.28,1.52a5.35,5.35,0,0,0-.83.49c-.06.58.33.53.56.59a11.36,11.36,0,0,0,4.11.24q2.68-.34,5.38-.65a7.75,7.75,0,0,1,1.09.07,5.84,5.84,0,0,1-1,.59,28,28,0,0,1-11.2.73,1.19,1.19,0,0,1-.42-.11c-1.22-.76-2.35-.29-3.5.22a38.6,38.6,0,0,0-5.87,3.25c-.65.44-1.36.81-2,1.2-.52.29-1,.61-1,1.29S214.25,128,214.76,128.23Z"/></g></g></svg>